# xmcd
#
# Track frame offsets:
#	150
#	22252
#	42755
#	63258
#	81230
#
# Disc length: 1260 seconds
#
# Revision: 1
# Processed by: cddbd v1.5.2PL0 Copyright (c) Steve Scherf et al.
# Submitted via: EasyCDDAExtractor 10.0.4.1
#
DISCID=3a04ea05
DTITLE=Thanassis Papapolitis - Lebanon Lament
DYEAR=2006
DGENRE=Blues
TTITLE0=Lebanon Lament (Qana mix)
TTITLE1=Lebanon Lament (Radio edit)
TTITLE2=Lebanon Lament (Internet mix)
TTITLE3=Lebanon Lament  (Clean mix)
TTITLE4=Lebanon Lament - Ya Hawa Beirut
EXTD=http://papapolitis.4t.com/
EXTT0=
EXTT1=
EXTT2=
EXTT3=
EXTT4=
PLAYORDER=
